<svg id="Layer_1" data-name="Layer 1" xmlns="http://www.w3.org/2000/svg" viewBox="0 0 117.06 57.6"><path d="M98.93,12l8.59-5.15V35.24c0,2.16.83,3,1.53,3.32a2.26,2.26,0,0,0,.94.19,3.52,3.52,0,0,0,1.5-.37,10,10,0,0,1-5.56,1.93h0a8,8,0,0,1-5.1-1.66,4.73,4.73,0,0,1-1.89-3.6Z"/><path d="M27,18.8V40H18.36V18.61c0-2.16-.83-3-1.52-3.31a2.16,2.16,0,0,0-.95-.2,3.47,3.47,0,0,0-1.44.34A9.78,9.78,0,0,1,20,13.55C24.27,13.55,26.94,16.27,27,18.8Z"/><path d="M43.44,18.8V40h-8.6V18.61c0-2.16-.83-3-1.52-3.31a2.15,2.15,0,0,0-.94-.2,3.47,3.47,0,0,0-1.44.34,9.75,9.75,0,0,1,5.51-1.89C40.75,13.55,43.43,16.27,43.44,18.8Z"/><path d="M60.27,5.55a4.63,4.63,0,0,1-4.68,4.68,4.55,4.55,0,0,1-3.26-1.36,4.65,4.65,0,1,1,7.94-3.32Z"/><polygon points="59.9 40.01 51.31 40.01 51.3 14.57 59.89 14.63 59.9 40.01"/><polygon points="76.43 40.01 67.84 40.01 67.83 14.57 76.42 14.63 76.43 40.01"/><polygon points="10.49 40.01 1.9 40.01 1.89 14.57 10.48 14.63 10.49 40.01"/><path d="M92.17,40.14H83.58V18.73c0-2.16-.83-3-1.53-3.32a2.26,2.26,0,0,0-.94-.19,3.52,3.52,0,0,0-1.5.37,10,10,0,0,1,5.56-1.93h0a8,8,0,0,1,5.1,1.66,4.73,4.73,0,0,1,1.89,3.6Z"/><path d="M110,14h5a.2.2,0,0,1,.15.33l-2.5,2.8a.2.2,0,0,1-.3,0l-2.49-2.8A.2.2,0,0,1,110,14Z"/><path d="M27.14,53.91c0,2.18-1.29,2.68-2.37,2.68H23.63V51.31h1.05C25.9,51.31,27.14,51.73,27.14,53.91ZM24.09,51.7v4.5h.7c.91,0,1.85-.4,1.85-2.29s-1-2.21-1.91-2.21Z"/><path d="M32.28,51.69H30.11v2H32V54H30.12V56.2h2.27v.39H29.65V51.31h2.68Z"/><path d="M37.39,51.81l-.27.29a1.72,1.72,0,0,0-1.23-.49c-.65,0-1.09.34-1.09.9s.28.79,1.23,1.07,1.53.63,1.53,1.56a1.56,1.56,0,0,1-1.75,1.53A2.32,2.32,0,0,1,34.12,56l.26-.3a2,2,0,0,0,1.42.57,1.14,1.14,0,0,0,1.29-1.12c0-.64-.32-.9-1.26-1.2s-1.5-.68-1.5-1.44a1.37,1.37,0,0,1,1.54-1.3A2.06,2.06,0,0,1,37.39,51.81Z"/><path d="M40.44,56.58H40V51.3h.46Z"/><path d="M46.61,51.74l-.28.29a1.74,1.74,0,0,0-1.17-.42c-.85,0-1.72.63-1.72,2.31s.66,2.35,1.7,2.35A2.13,2.13,0,0,0,46.25,56V54.12h-1l-.06-.38H46.7v2.49a3.1,3.1,0,0,1-1.56.44c-1.31,0-2.18-.92-2.18-2.75s1.07-2.7,2.2-2.7A2.08,2.08,0,0,1,46.61,51.74Z"/><path d="M52.7,56.58h-.61L49.6,51.81c0,.36.06.87.06,1.82v2.95h-.44V51.3h.59l2.51,4.77c0-.23-.06-.88-.06-1.57V51.3h.44Z"/><path d="M61.58,51.8l-.27.29a1.74,1.74,0,0,0-1.23-.49c-.65,0-1.1.34-1.1.9s.29.78,1.23,1.07,1.53.63,1.53,1.56A1.56,1.56,0,0,1,60,56.66,2.4,2.4,0,0,1,58.3,56l.27-.3a2,2,0,0,0,1.41.56c.74,0,1.29-.4,1.29-1.11S61,54.25,60,54s-1.5-.68-1.5-1.44a1.38,1.38,0,0,1,1.55-1.3A2.1,2.1,0,0,1,61.58,51.8Z"/><path d="M66.81,51.7H65.26v4.87h-.45V51.7H63.24v-.41h3.62Z"/><path d="M72.34,54.92a1.74,1.74,0,0,1-3.47,0V51.29h.46v3.59c0,.86.39,1.37,1.27,1.37s1.27-.52,1.27-1.37V51.29h.48Z"/><path d="M78.63,53.88c0,2.19-1.29,2.69-2.37,2.69H75.12V51.29h1C77.39,51.29,78.63,51.71,78.63,53.88Zm-3-2.21v4.51h.71c.9,0,1.85-.4,1.85-2.3s-1-2.21-1.91-2.21Z"/><path d="M81.61,56.56h-.47V51.29h.46Z"/><path d="M88.43,53.93c0,1.73-.85,2.72-2.16,2.72s-2.15-1-2.15-2.71S85,51.2,86.27,51.2,88.43,52.15,88.43,53.93Zm-3.82,0c0,1.58.68,2.32,1.66,2.32s1.67-.74,1.67-2.32-.65-2.34-1.67-2.34S84.61,52.33,84.61,53.93Z"/></svg>